# xmcd
#
# Track frame offsets: 
#        150
#        11190
#        22482
#        34210
#        46864
#        57050
#        68347
#        81560
#        93822
#        103485
#        114255
#        123117
#        137822
#        151757
#        170937
#
# Disc length: 2448 seconds
#
# Revision: 1
# Processed by: cddbd v1.5.2PL0 Copyright (c) Steve Scherf et al.
# Submitted via: ExactAudioCopy v1.1
#
DISCID=c8098e0f
DTITLE=Various Artist - Ralph Emery Presents Country Roads - I Fall To Pieces
DYEAR=2006
DGENRE=Classic Country
TTITLE0=Roger Miller - King Of The Road
TTITLE1=Billy Grammer - Gotta Travel On
TTITLE2=Tennessee Ernie Ford - Sixteen Tons
TTITLE3=Patsy Cline - I Fall To Pieces
TTITLE4=Carl Perkins - Blue Suede Shoes
TTITLE5=Carl Smith - Hey Joe!
TTITLE6=Lefty Frizzell - If You've Got The Money, I've Got The Time
TTITLE7=Hank Thompson and His Brazos Valley Boys - The Wild Side Of Life
TTITLE8=Loretta Lynn - Don't Come Home A Drinkiin' (With Lovin' On You
TTITLE8=r Mind)
TTITLE9=Porter Wagoner and Dolly Parton - Just Someone I Used To Know
TTITLE10=Faron Young - Alone With You
TTITLE11=Marty Robbins - Don't Worry
TTITLE12=Glen Campbell - Wichita Lineman
TTITLE13=Bobbie Gentry - Ode To Billy Joe
TTITLE14=The Browns Featuring Jim Ed Brown - The Three Bells (Les Troi
TTITLE14=s Cloches)
EXTD=
EXTT0=
EXTT1=
EXTT2=
EXTT3=
EXTT4=
EXTT5=
EXTT6=
EXTT7=
EXTT8=
EXTT9=
EXTT10=
EXTT11=
EXTT12=
EXTT13=
EXTT14=
PLAYORDER=
